# xmcd
#
# Track frame offsets:
#	150
#	11985
#	23335
#	53915
#	69425
#	81867
#	93542
#	106892
#	119570
#	134147
#	147922
#
# Disc length: 2130 seconds
#
# Revision: 9
# Processed by: cddbd v1.5.2PL0 Copyright (c) Steve Scherf et al.
# Submitted via: EasyCDDAExtractor 15.3.0.1
#
DISCID=9908500b
DTITLE=Cher - The Best Of Cher - 20th Century Masters - The Millennium Collect
DTITLE=ion
DYEAR=2000
DGENRE=Pop
TTITLE0=Gypsys, Tramps and Thieves
TTITLE1=The Way Of Love
TTITLE2=Take Me Home
TTITLE3=Dark Lady
TTITLE4=Half Breed
TTITLE5=Train Of Thought
TTITLE6=Living In A House Divided
TTITLE7=Don't Hide Your Love
TTITLE8=I Saw A Man And He Danced With His Wife
TTITLE9=Carousel Man
TTITLE10=All I Ever Need Is You (Sonny and Cher)
EXTD=\nYEAR: 2000  ID3G:  17\n
EXTT0=
EXTT1=
EXTT2=
EXTT3=
EXTT4=
EXTT5=
EXTT6=
EXTT7=
EXTT8=
EXTT9=
EXTT10=
PLAYORDER=
